# xmcd CD database file
#
# Track frame offsets:
#	150
#	11467
#	40442
#	58725
#	79860
#	108122
#	128335
#	166490
#	191332
#	209225
#	229955
#	256527
#	292077
#
# Disc length: 4272 seconds
#
# Revision: 3
# Processed by: cddbd v1.5.1PL0 Copyright (c) Steve Scherf et al.
# Submitted via: CDex 1.51
#
DISCID=b110ae0d
DTITLE=Various Artist - NORTH SEA JAZZ FESTIVAL 1998
DYEAR=1998
DGENRE=Jazz
TTITLE0=DEE DEE BRIDGEWATER - A-TISKET, A-TASKET
TTITLE1=JOE HENDERSON and STING - IT AIN`T NECESSARILY SO
TTITLE2=LUCKY PETERSON and MAVIS STAPLES - IF I COULD HEAR MY MOTHER PRAY AGAIN
TTITLE3=HEAD HUNTERS - WATCH`R BACK
TTITLE4=COURTNEY PINE and JHELISA - TRYIN`TIMES
TTITLE5=JOHN SCOFIELD - JEEP ON
TTITLE6=TERRY CALLIER - LAZARUS MAN
TTITLE7=ROY HARGROVE and CRISOL - MR. BRUCE
TTITLE8=BADI ASSAD - AI QUE SAUDADE D`OCE
TTITLE9=DAVE SAMUELS - TJADERIZED
TTITLE10=NICHOLAS PAYTON - ZIGABOOGALOO
TTITLE11=PHARAO SANDERS - SAVE OUR CHILDREN
TTITLE12=ART PORTER - LAKE SHORE DRIVE
EXTD=YEAR: 1998
EXTT0=
EXTT1=
EXTT2=
EXTT3=
EXTT4=
EXTT5=
EXTT6=
EXTT7=
EXTT8=
EXTT9=
EXTT10=
EXTT11=
EXTT12=
PLAYORDER=
